<svg width="51" height="20" viewBox="0 0 51 20" fill="none" xmlns="http://www.w3.org/2000/svg">
<path d="M1.488 16V7.52H5.424C6.416 7.52 7.19467 7.712 7.76 8.096C8.336 8.46933 8.624 9.00267 8.624 9.696C8.624 10.3893 8.352 10.928 7.808 11.312C7.27467 11.6853 6.56533 11.872 5.68 11.872L5.92 11.456C6.93333 11.456 7.68533 11.6427 8.176 12.016C8.66667 12.3893 8.912 12.9387 8.912 13.664C8.912 14.4 8.63467 14.976 8.08 15.392C7.536 15.7973 6.69867 16 5.568 16H1.488ZM2.992 14.816H5.456C6.096 14.816 6.576 14.72 6.896 14.528C7.216 14.3253 7.376 14.0053 7.376 13.568C7.376 13.12 7.22667 12.7947 6.928 12.592C6.64 12.3787 6.18133 12.272 5.552 12.272H2.992V14.816ZM2.992 11.168H5.296C5.88267 11.168 6.32533 11.0613 6.624 10.848C6.93333 10.624 7.088 10.3147 7.088 9.92C7.088 9.51467 6.93333 9.21067 6.624 9.008C6.32533 8.80533 5.88267 8.704 5.296 8.704H2.992V11.168ZM14.9481 16.096C14.0948 16.096 13.3375 15.9093 12.6761 15.536C12.0148 15.1627 11.4921 14.6507 11.1081 14C10.7241 13.3387 10.5321 12.592 10.5321 11.76C10.5321 10.9173 10.7241 10.1707 11.1081 9.52C11.4921 8.86933 12.0148 8.36267 12.6761 8C13.3375 7.62667 14.0948 7.44 14.9481 7.44C15.7908 7.44 16.5428 7.62667 17.2041 8C17.8761 8.36267 18.3988 8.86933 18.7721 9.52C19.1561 10.16 19.3481 10.9067 19.3481 11.76C19.3481 12.6027 19.1561 13.3493 18.7721 14C18.3988 14.6507 17.8761 15.1627 17.2041 15.536C16.5428 15.9093 15.7908 16.096 14.9481 16.096ZM14.9481 14.752C15.4921 14.752 15.9775 14.6293 16.4041 14.384C16.8415 14.1387 17.1828 13.792 17.4281 13.344C17.6735 12.8853 17.7961 12.3573 17.7961 11.76C17.7961 11.152 17.6735 10.6293 17.4281 10.192C17.1828 9.744 16.8415 9.39733 16.4041 9.152C15.9775 8.90667 15.4921 8.784 14.9481 8.784C14.4041 8.784 13.9188 8.90667 13.4921 9.152C13.0655 9.39733 12.7241 9.744 12.4681 10.192C12.2121 10.6293 12.0841 11.152 12.0841 11.76C12.0841 12.3573 12.2121 12.8853 12.4681 13.344C12.7241 13.792 13.0655 14.1387 13.4921 14.384C13.9188 14.6293 14.4041 14.752 14.9481 14.752ZM21.5661 16V7.52H23.1021V13.696L28.3021 7.52H29.6941V16H28.1581V9.824L22.9741 16H21.5661ZM25.5341 6.416C24.7555 6.416 24.1421 6.22933 23.6941 5.856C23.2568 5.472 23.0328 4.92267 23.0221 4.208H24.0621C24.0728 4.61333 24.2061 4.93333 24.4621 5.168C24.7288 5.40267 25.0808 5.52 25.5181 5.52C25.9555 5.52 26.3075 5.40267 26.5741 5.168C26.8408 4.93333 26.9795 4.61333 26.9901 4.208H28.0621C28.0515 4.92267 27.8221 5.472 27.3741 5.856C26.9261 6.22933 26.3128 6.416 25.5341 6.416ZM34.3555 16V8.464L34.7395 8.864H31.2515V7.52H38.9955V8.864H35.5235L35.8915 8.464V16H34.3555ZM40.5661 16V7.52H42.1021V13.696L47.3021 7.52H48.6941V16H47.1581V9.824L41.9741 16H40.5661Z" fill="#202020"/>
</svg>
