<svg width="115" height="32" viewBox="0 0 115 32" fill="none" xmlns="http://www.w3.org/2000/svg">
<rect x="1" y="1" width="113" height="30" rx="15" stroke="#202020" stroke-width="2"/>
<path d="M33.488 22V13.52H37.424C38.416 13.52 39.1947 13.712 39.76 14.096C40.336 14.4693 40.624 15.0027 40.624 15.696C40.624 16.3893 40.352 16.928 39.808 17.312C39.2747 17.6853 38.5653 17.872 37.68 17.872L37.92 17.456C38.9333 17.456 39.6853 17.6427 40.176 18.016C40.6667 18.3893 40.912 18.9387 40.912 19.664C40.912 20.4 40.6347 20.976 40.08 21.392C39.536 21.7973 38.6987 22 37.568 22H33.488ZM34.992 20.816H37.456C38.096 20.816 38.576 20.72 38.896 20.528C39.216 20.3253 39.376 20.0053 39.376 19.568C39.376 19.12 39.2267 18.7947 38.928 18.592C38.64 18.3787 38.1813 18.272 37.552 18.272H34.992V20.816ZM34.992 17.168H37.296C37.8827 17.168 38.3253 17.0613 38.624 16.848C38.9333 16.624 39.088 16.3147 39.088 15.92C39.088 15.5147 38.9333 15.2107 38.624 15.008C38.3253 14.8053 37.8827 14.704 37.296 14.704H34.992V17.168ZM46.9481 22.096C46.0948 22.096 45.3375 21.9093 44.6761 21.536C44.0148 21.1627 43.4921 20.6507 43.1081 20C42.7241 19.3387 42.5321 18.592 42.5321 17.76C42.5321 16.9173 42.7241 16.1707 43.1081 15.52C43.4921 14.8693 44.0148 14.3627 44.6761 14C45.3375 13.6267 46.0948 13.44 46.9481 13.44C47.7908 13.44 48.5428 13.6267 49.2041 14C49.8761 14.3627 50.3988 14.8693 50.7721 15.52C51.1561 16.16 51.3481 16.9067 51.3481 17.76C51.3481 18.6027 51.1561 19.3493 50.7721 20C50.3988 20.6507 49.8761 21.1627 49.2041 21.536C48.5428 21.9093 47.7908 22.096 46.9481 22.096ZM46.9481 20.752C47.4921 20.752 47.9775 20.6293 48.4041 20.384C48.8415 20.1387 49.1828 19.792 49.4281 19.344C49.6735 18.8853 49.7961 18.3573 49.7961 17.76C49.7961 17.152 49.6735 16.6293 49.4281 16.192C49.1828 15.744 48.8415 15.3973 48.4041 15.152C47.9775 14.9067 47.4921 14.784 46.9481 14.784C46.4041 14.784 45.9188 14.9067 45.4921 15.152C45.0655 15.3973 44.7241 15.744 44.4681 16.192C44.2121 16.6293 44.0841 17.152 44.0841 17.76C44.0841 18.3573 44.2121 18.8853 44.4681 19.344C44.7241 19.792 45.0655 20.1387 45.4921 20.384C45.9188 20.6293 46.4041 20.752 46.9481 20.752ZM53.5661 22V13.52H55.1021V19.696L60.3021 13.52H61.6941V22H60.1581V15.824L54.9741 22H53.5661ZM57.5341 12.416C56.7555 12.416 56.1421 12.2293 55.6941 11.856C55.2568 11.472 55.0328 10.9227 55.0221 10.208H56.0621C56.0728 10.6133 56.2061 10.9333 56.4621 11.168C56.7288 11.4027 57.0808 11.52 57.5181 11.52C57.9555 11.52 58.3075 11.4027 58.5741 11.168C58.8408 10.9333 58.9795 10.6133 58.9901 10.208H60.0621C60.0515 10.9227 59.8221 11.472 59.3741 11.856C58.9261 12.2293 58.3128 12.416 57.5341 12.416ZM66.3555 22V14.464L66.7395 14.864H63.2515V13.52H70.9955V14.864H67.5235L67.8915 14.464V22H66.3555ZM72.5661 22V13.52H74.1021V19.696L79.3021 13.52H80.6941V22H79.1581V15.824L73.9741 22H72.5661Z" fill="#202020"/>
</svg>
